<?xml version="1.0" encoding="UTF-8" standalone="no" ?>
<!DOCTYPE svg PUBLIC "-//W3C//DTD SVG 1.1//EN" "http://www.w3.org/Graphics/SVG/1.1/DTD/svg11.dtd">
<svg xmlns="http://www.w3.org/2000/svg" xmlns:xlink="http://www.w3.org/1999/xlink" version="1.1" width="128" height="128" viewBox="0 0 640 640" xml:space="preserve">
<desc>Created with Fabric.js 5.3.0</desc>
<defs>
</defs>
<g transform="matrix(8.1774553859 0 0 8.1774553859 318.1474432097 345.7742405793)" id="6Lu_dIAyjHWq_wCf2C6do"  >
<path style="stroke: rgb(74,216,189); stroke-width: 0; stroke-dasharray: none; stroke-linecap: butt; stroke-dashoffset: 0; stroke-linejoin: miter; stroke-miterlimit: 4; fill: rgb(17,155,215); fill-rule: nonzero; opacity: 1;" vector-effect="non-scaling-stroke"  transform=" translate(0, 0)" d="M 0 -35.67447 C 19.69231 -35.67447 35.67447 -19.69231 35.67447 0 C 35.67447 19.69231 19.69231 35.67447 0 35.67447 C -19.69231 35.67447 -35.67447 19.69231 -35.67447 0 C -35.67447 -19.69231 -19.69231 -35.67447 0 -35.67447 z" stroke-linecap="round" />
</g>
<g transform="matrix(3.1773091755 0 0 3.1773091755 356.4872438642 134.1244085389)" id="kJtyvpdslNGYsdo2mqCW1"  >
<path style="stroke: rgb(247,185,148); stroke-width: 0; stroke-dasharray: none; stroke-linecap: butt; stroke-dashoffset: 0; stroke-linejoin: miter; stroke-miterlimit: 4; fill: rgb(255,255,255); fill-rule: nonzero; opacity: 1;" vector-effect="non-scaling-stroke"  transform=" translate(0, 0)" d="M 0 -16.44737 C 9.07895 -16.44737 16.44737 -9.078949999999999 16.44737 0 C 16.44737 9.07895 9.078949999999999 16.44737 0 16.44737 C -9.07895 16.44737 -16.44737 9.078949999999999 -16.44737 0 C -16.44737 -9.07895 -9.078949999999999 -16.44737 0 -16.44737 z" stroke-linecap="round" />
</g>
<g transform="matrix(2.1240143859 0 0 2.1240143859 464.059802964 308.1671141834)" id="tPIcn3aaOASxbutOSA5ar"  >
<path style="stroke: rgb(255,255,255); stroke-width: 0; stroke-dasharray: none; stroke-linecap: butt; stroke-dashoffset: 0; stroke-linejoin: miter; stroke-miterlimit: 4; fill: rgb(255,255,255); fill-rule: nonzero; opacity: 1;" vector-effect="non-scaling-stroke"  transform=" translate(0, 0)" d="M 22.26948 -98.60381 C 29.58963 -110.91843 33.193650000000005 -123.29933 33.193650000000005 -123.29933 C 33.193650000000005 -123.29933 30.071040000000004 -111.18186 10.517160000000004 -92.53238999999999 C -21.166039999999995 -71.74244999999999 -29.986689999999996 -64.68200999999999 -33.15689999999999 -46.28876999999999 C -34.162609999999994 -26.596829999999994 -14.186429999999994 -0.9469899999999924 -14.110439999999993 32.663000000000004 C -10.087089999999993 65.48351 -29.807209999999994 123.29933 -29.807209999999994 123.29933 C -29.807209999999994 123.29933 -6.975549999999995 88.33834999999999 0.8728300000000075 54.09085999999999 C 11.575170000000007 -7.269230000000007 -13.031509999999992 -17.128060000000005 -14.110449999999993 -43.657190000000014 C -13.890689999999992 -62.17766000000002 -2.662209999999993 -70.16767000000002 7.331970000000005 -80.07881 C 10.221230000000006 -83.26004 18.415830000000007 -92.12084 22.269480000000005 -98.6038 z" stroke-linecap="round" />
</g>
<g transform="matrix(2.1240143859 0 0 2.1240143859 133.9133971645 592.8816119715)" id="-VEJw9MANINSNvCzyk04-"  >
<path style="stroke: rgb(17,155,215); stroke-width: 0; stroke-dasharray: none; stroke-linecap: butt; stroke-dashoffset: 0; stroke-linejoin: miter; stroke-miterlimit: 4; fill: rgb(17,155,215); fill-rule: nonzero; opacity: 1;" vector-effect="non-scaling-stroke"  transform=" translate(0, 0)" d="M -25.88242 17.1781 C -25.88242 17.1781 -4.93732 3.754200000000001 6.781600000000001 -2.0532499999999985 C 18.50051 -7.860709999999998 25.88242 -11.13647 25.88242 -11.13647 L 15.369629999999999 -17.17811 z" stroke-linecap="round" />
</g>
<g transform="matrix(2.1240143859 0 0 2.1240143859 490.6283305629 92.7543404969)" id="hpzFYtaue3WDWakI8n9_B"  >
<path style="stroke: rgb(17,155,215); stroke-width: 0; stroke-dasharray: none; stroke-linecap: butt; stroke-dashoffset: 0; stroke-linejoin: miter; stroke-miterlimit: 4; fill: rgb(17,155,215); fill-rule: nonzero; opacity: 1;" vector-effect="non-scaling-stroke"  transform=" translate(0, 0)" d="M -16.98094 15.49623 C -17.53619 13.193060000000001 -16.759050000000002 10.02739 -16.759050000000002 10.02739 C -16.759050000000002 10.02739 0.6862799999999964 1.6620299999999997 7.121299999999998 -5.226789999999999 C 13.556319999999998 -12.11561 20.68501 -21.323769999999996 20.68501 -21.323769999999996 C 20.68501 -21.323769999999996 16.47414 -11.820439999999996 12.656999999999998 -6.8318299999999965 C 11.070459999999999 -4.758389999999997 8.19193 -1.1490299999999962 6.023019999999998 1.2123000000000026 C 2.973639999999998 4.532220000000002 0.4705699999999977 6.516500000000002 -1.1475000000000017 8.182930000000002 C -2.269090000000002 9.338050000000003 -7.458350000000002 12.741940000000003 -9.806890000000003 14.268720000000002 C -13.256330000000002 16.511190000000003 -20.685000000000002 21.323770000000003 -20.685000000000002 21.323770000000003 C -20.685000000000002 21.323770000000003 -16.54061 17.322680000000005 -16.98093 15.496230000000004 z" stroke-linecap="round" />
</g>
<g transform="matrix(2.1240143859 0 0 2.1240143859 220.4242570112 413.1912128448)" id="ti6YTWTAGw0Jm60RGF_AS"  >
<path style="stroke: rgb(255,255,255); stroke-width: 0; stroke-dasharray: none; stroke-linecap: butt; stroke-dashoffset: 0; stroke-linejoin: miter; stroke-miterlimit: 4; fill: rgb(255,255,255); fill-rule: nonzero; opacity: 1;" vector-effect="non-scaling-stroke"  transform=" translate(0, 0)" d="M -45.77584 -44.43973 C -45.77584 -44.43973 7.073609999999995 -94.41504 39.45576 -82.12847 C 53.45408 -69.63987999999999 37.69217 -33.67728999999999 37.69217 -33.67728999999999 C 37.69217 -33.67728999999999 31.01844 -16.545039999999993 4.830219999999997 17.40015000000001 C -21.358010000000004 51.34534000000001 -67.06073 102.10347000000002 -67.06073 102.10347000000002 C -67.06073 102.10347000000002 -37.73006000000001 80.31840000000001 -8.705140000000007 50.464120000000015 C 20.319789999999994 20.609840000000016 30.55411999999999 10.098650000000013 43.988459999999996 -12.906399999999984 C 57.422799999999995 -35.91144999999999 67.38913 -54.350689999999986 67.05243 -70.44496999999998 C 66.71573000000001 -86.53924999999998 63.34873 -91.42981999999998 56.88408 -96.77493999999999 C 50.41943 -102.12005999999998 39.61135 -104.48537999999999 22.607989999999994 -98.89614999999999 C 5.6046199999999935 -93.30691999999999 -11.844870000000007 -81.19711999999998 -21.062040000000003 -72.63351999999999 C -30.279210000000003 -64.06992 -45.77584 -44.43972999999999 -45.77584 -44.43972999999999 z" stroke-linecap="round" />
</g>
<g transform="matrix(2.5371776723 0.6325894419 -0.6325894419 2.5371776723 538.8116150282 29.7490334346)" id="_DYnh4n_249V4Sn_HpKZt"  >
<path style="stroke: rgb(17,155,215); stroke-width: 0; stroke-dasharray: none; stroke-linecap: butt; stroke-dashoffset: 0; stroke-linejoin: miter; stroke-miterlimit: 4; fill: rgb(246,146,30); fill-rule: nonzero; opacity: 1;" vector-effect="non-scaling-stroke"  transform=" translate(0, 0)" d="M -5.4413 -0.47663 C -5.4413 -5.24762 -9.54199 -9.54199 -9.54199 -9.54199 C -9.54199 -9.54199 -4.771 -5.46551 -0.000009999999999621423 -5.46551 C 4.770980000000001 -5.46551 9.541970000000001 -9.54199 9.541970000000001 -9.54199 C 9.541970000000001 -9.54199 5.633070000000001 -5.24762 5.633070000000001 -0.4766300000000001 C 5.633070000000001 4.29436 9.541970000000001 9.54198 9.541970000000001 9.54198 C 9.541970000000001 9.54198 4.770980000000001 5.179710000000001 -0.000009999999999621423 5.179710000000001 C -4.771 5.179710000000001 -9.54199 9.54198 -9.54199 9.54198 C -9.54199 9.54198 -5.4413 4.29436 -5.4413 -0.4766300000000001 z" stroke-linecap="round" />
</g>
</svg>